# xmcd CD database file
#
# Track frame offsets:
#	150
#	18055
#	31032
#	46092
#	61707
#	78912
#	95740
#	109327
#	124775
#	140480
#	157300
#
# Disc length: 2434 seconds
#
# Revision: 0
# Processed by: cddbd v1.4PL0 Copyright (c) Steve Scherf et al.
# Submitted via: CDex 1.51
#
DISCID=8509800b
DTITLE=Jim Yeomans - There Goes My Heart
DYEAR=1996
DGENRE=Country
TTITLE0=Have You Ever Seen A Woman
TTITLE1=I Can't Get Over You
TTITLE2=Let's Walk Away in Love
TTITLE3=Only Love Can Break Your Heart
TTITLE4=There Goes My Heart
TTITLE5=Wooden Nickel
TTITLE6=All That Matters
TTITLE7=What Am I Doin' Hanging Around
TTITLE8=Willin'
TTITLE9=Shine, Shine, Shine
TTITLE10=Grandpa's Violin
EXTD=YEAR: 1996
EXTT0=
EXTT1=
EXTT2=
EXTT3=
EXTT4=
EXTT5=
EXTT6=
EXTT7=
EXTT8=
EXTT9=
EXTT10=
PLAYORDER=
